<svg width="24" height="25" viewBox="0 0 24 25" fill="none" xmlns="http://www.w3.org/2000/svg">
<path d="M12 11.7318C9.95361 11.7318 8.267 10.0403 8.267 7.95726H6.767C6.767 10.8559 9.11239 13.2318 12 13.2318V11.7318ZM8.267 7.95726C8.267 5.86679 9.96092 4.14844 12 4.14844V2.64844C9.10508 2.64844 6.767 5.06603 6.767 7.95726H8.267ZM12 4.14844C14.0464 4.14844 15.733 5.83989 15.733 7.92295H17.233C17.233 5.0243 14.8876 2.64844 12 2.64844V4.14844ZM15.733 7.92295C15.733 10.0134 14.0391 11.7318 12 11.7318V13.2318C14.8949 13.2318 17.233 10.8142 17.233 7.92295H15.733ZM19 20.8151H5V22.3151H19V20.8151ZM5 20.8151C4.87072 20.8151 4.75 20.7033 4.75 20.5558H3.25C3.25 21.5186 4.02928 22.3151 5 22.3151V20.8151ZM4.75 20.5558V19.5466H3.25V20.5558H4.75ZM4.75 19.5466C4.75 17.7339 6.22072 16.2595 8 16.2595V14.7595C5.37928 14.7595 3.25 16.9185 3.25 19.5466H4.75ZM8 16.2595H16V14.7595H8V16.2595ZM16 16.2595C17.7793 16.2595 19.25 17.7339 19.25 19.5466H20.75C20.75 16.9185 18.6207 14.7595 16 14.7595V16.2595ZM19.25 19.5466V20.5558H20.75V19.5466H19.25ZM19.25 20.5558C19.25 20.7033 19.1293 20.8151 19 20.8151V22.3151C19.9707 22.3151 20.75 21.5186 20.75 20.5558H19.25Z" fill="#323232"/>
</svg>
