<svg width="24" height="24" viewBox="0 0 24 24" fill="none" xmlns="http://www.w3.org/2000/svg">
<path fill-rule="evenodd" clip-rule="evenodd" d="M17.4964 5.27286V5.27286C18.9541 6.73063 19.7731 8.70778 19.7731 10.7694C19.7731 12.831 18.9541 14.8081 17.4964 16.2659V16.2659L13.2951 20.4671C12.5797 21.1825 11.4199 21.1825 10.7046 20.4671L6.50329 16.2658C5.04553 14.8081 4.22656 12.8309 4.22656 10.7693C4.22656 8.70774 5.04553 6.73059 6.50329 5.27282V5.27282C7.96106 3.81505 9.93823 2.99609 11.9998 2.99609C14.0614 2.99609 16.0386 3.81508 17.4964 5.27286Z" stroke="#323232" stroke-width="1.5" stroke-linecap="round" stroke-linejoin="round"/>
<path fill-rule="evenodd" clip-rule="evenodd" d="M9.06999 12.3821C8.30643 11.6185 8.30643 10.3805 9.06999 9.61696L10.6166 8.07039C11.3801 7.30683 12.6181 7.30682 13.3817 8.07039L14.9282 9.61696C15.6918 10.3805 15.6918 11.6185 14.9282 12.3821L13.3817 13.9286C12.6181 14.6922 11.3801 14.6922 10.6166 13.9286L9.06999 12.3821Z" stroke="#323232" stroke-width="1.5" stroke-linecap="round" stroke-linejoin="round"/>
</svg>
