<svg width="24" height="24" viewBox="0 0 24 24" fill="none" xmlns="http://www.w3.org/2000/svg">
<path d="M12 11.675L10.435 12.898C10.3477 12.956 10.2637 12.957 10.183 12.901C10.1023 12.845 10.0787 12.7717 10.112 12.681L10.704 10.696L9.146 9.566C9.06267 9.508 9.041 9.43133 9.081 9.336C9.121 9.24 9.18633 9.192 9.277 9.192H11.215L11.808 7.219C11.8413 7.12833 11.9053 7.083 12 7.083C12.0947 7.083 12.1587 7.12833 12.192 7.219L12.785 9.192H14.717C14.8083 9.192 14.875 9.24 14.917 9.336C14.959 9.432 14.938 9.50867 14.854 9.566L13.29 10.696L13.883 12.681C13.9163 12.7717 13.8927 12.845 13.812 12.901C13.7307 12.957 13.6467 12.956 13.56 12.898L12 11.675ZM12 19.962L8.037 21.146C7.78033 21.2373 7.54333 21.199 7.326 21.031C7.10867 20.863 7 20.6443 7 20.375V14.871C6.36667 14.2483 5.875 13.519 5.525 12.683C5.175 11.847 5 10.9527 5 10C5 8.04867 5.679 6.39433 7.037 5.037C8.39433 3.679 10.0487 3 12 3C13.9513 3 15.6057 3.679 16.963 5.037C18.321 6.39433 19 8.04867 19 10C19 10.9527 18.825 11.847 18.475 12.683C18.125 13.519 17.6333 14.248 17 14.87V20.374C17 20.6433 16.8913 20.862 16.674 21.03C16.4567 21.198 16.22 21.2363 15.964 21.145L12 19.962ZM12 16C13.6667 16 15.0833 15.4167 16.25 14.25C17.4167 13.0833 18 11.6667 18 10C18 8.33333 17.4167 6.91667 16.25 5.75C15.0833 4.58333 13.6667 4 12 4C10.3333 4 8.91667 4.58333 7.75 5.75C6.58333 6.91667 6 8.33333 6 10C6 11.6667 6.58333 13.0833 7.75 14.25C8.91667 15.4167 10.3333 16 12 16Z" fill="black"/>
</svg>
