<svg width="25" height="24" viewBox="0 0 25 24" fill="none" xmlns="http://www.w3.org/2000/svg">
<path fill-rule="evenodd" clip-rule="evenodd" d="M7.996 3H17.005C19.487 3 21.5 5.012 21.5 7.496V16.505C21.5 18.987 19.488 21 17.004 21H7.996C5.513 21 3.5 18.988 3.5 16.504V7.496C3.5 5.013 5.512 3 7.996 3V3Z" stroke="#121A32" stroke-width="1.5" stroke-linecap="round" stroke-linejoin="round"/>
<path d="M17.449 6.71279C17.263 6.71379 17.112 6.86479 17.112 7.05079C17.112 7.23679 17.264 7.38779 17.45 7.38779C17.636 7.38779 17.787 7.23679 17.787 7.05079C17.788 6.86379 17.636 6.71279 17.449 6.71279" stroke="#121A32" stroke-width="1.5" stroke-linecap="round" stroke-linejoin="round"/>
<path d="M15.0455 9.45432C16.4514 10.8602 16.4514 13.1396 15.0455 14.5455C13.6396 15.9514 11.3602 15.9514 9.95432 14.5455C8.54843 13.1396 8.54843 10.8602 9.95432 9.45432C11.3602 8.04843 13.6396 8.04843 15.0455 9.45432" stroke="#121A32" stroke-width="1.5" stroke-linecap="round" stroke-linejoin="round"/>
</svg>
