<svg width="25" height="24" viewBox="0 0 25 24" fill="none" xmlns="http://www.w3.org/2000/svg">
<path d="M20.45 9.3501C20.45 8.93588 20.1142 8.6001 19.7 8.6001C19.2858 8.6001 18.95 8.93588 18.95 9.3501H20.45ZM4.10565 16.1077C3.86134 15.7732 3.39213 15.7001 3.05764 15.9444C2.72314 16.1888 2.65004 16.658 2.89435 16.9925L4.10565 16.1077ZM3.37257 15.811C2.96438 15.8814 2.69053 16.2693 2.7609 16.6775C2.83128 17.0857 3.21924 17.3596 3.62743 17.2892L3.37257 15.811ZM6.2 15.6501L6.43829 16.3612C6.68386 16.2789 6.86961 16.0758 6.9296 15.8238C6.9896 15.5719 6.91535 15.3068 6.73322 15.1227L6.2 15.6501ZM5.3 4.8501L5.96058 4.49494C5.83797 4.26688 5.60639 4.1182 5.34798 4.10163C5.08958 4.08507 4.84091 4.20296 4.69018 4.4135L5.3 4.8501ZM10.7 9.3501L10.5229 10.0789C10.7422 10.1322 10.9739 10.0839 11.1537 9.94732C11.3334 9.81076 11.4421 9.60051 11.4496 9.37489L10.7 9.3501ZM18.8 6.6501L18.1738 7.06287C18.3126 7.27339 18.5479 7.4001 18.8 7.4001V6.6501ZM21.5 6.6501L22.124 7.06612C22.2775 6.83598 22.2918 6.54007 22.1613 6.2962C22.0307 6.05234 21.7766 5.9001 21.5 5.9001V6.6501ZM19.076 8.93407C18.8462 9.27872 18.9393 9.74437 19.284 9.97414C19.6286 10.2039 20.0943 10.1108 20.324 9.76612L19.076 8.93407ZM18.95 9.3501C18.95 12.3621 18.0901 14.8711 16.5501 16.6164C15.0204 18.35 12.7593 19.4001 9.8 19.4001V20.9001C13.1407 20.9001 15.8296 19.7002 17.6749 17.6088C19.5099 15.5291 20.45 12.6381 20.45 9.3501H18.95ZM9.8 19.4001C8.14458 19.4001 7.0374 18.9725 6.20459 18.3832C5.34887 17.7777 4.73772 16.9731 4.10565 16.1077L2.89435 16.9925C3.51928 17.8481 4.25813 18.8435 5.33816 19.6077C6.4411 20.3881 7.85542 20.9001 9.8 20.9001V19.4001ZM3.62743 17.2892C3.65119 17.2851 3.66958 17.2807 3.67593 17.2792C3.68458 17.2771 3.69158 17.2753 3.69578 17.2741C3.70418 17.2719 3.71102 17.2699 3.71457 17.2688C3.72212 17.2666 3.729 17.2645 3.73345 17.2631C3.74301 17.2601 3.75419 17.2566 3.76552 17.2529C3.78875 17.2454 3.82054 17.235 3.85881 17.2224C3.93573 17.1971 4.04331 17.1614 4.17073 17.1191C4.42579 17.0343 4.76283 16.9218 5.0986 16.8095C5.43446 16.6973 5.76937 16.5852 6.0203 16.5012C6.14577 16.4592 6.25026 16.4242 6.32338 16.3997C6.35994 16.3875 6.38866 16.3779 6.40825 16.3713C6.41804 16.368 6.42555 16.3655 6.43061 16.3638C6.43314 16.363 6.43506 16.3623 6.43634 16.3619C6.43699 16.3617 6.43747 16.3615 6.4378 16.3614C6.43796 16.3613 6.43808 16.3613 6.43816 16.3613C6.43821 16.3613 6.43824 16.3613 6.43826 16.3612C6.43828 16.3612 6.43829 16.3612 6.2 15.6501C5.96171 14.939 5.9617 14.939 5.96168 14.939C5.96166 14.939 5.96163 14.939 5.96159 14.939C5.96151 14.939 5.96139 14.9391 5.96123 14.9391C5.96091 14.9392 5.96042 14.9394 5.95978 14.9396C5.9585 14.94 5.95659 14.9407 5.95407 14.9415C5.94902 14.9432 5.94152 14.9457 5.93175 14.949C5.91219 14.9556 5.8835 14.9652 5.84697 14.9774C5.7739 15.0019 5.66949 15.0368 5.5441 15.0788C5.29331 15.1628 4.95867 15.2748 4.62315 15.3869C4.28755 15.4991 3.9514 15.6112 3.69749 15.6957C3.57042 15.7379 3.46458 15.773 3.38987 15.7976C3.35233 15.8099 3.32377 15.8193 3.30469 15.8254C3.29486 15.8286 3.28939 15.8303 3.28715 15.831C3.28569 15.8315 3.28787 15.8308 3.29198 15.8296C3.29381 15.8291 3.29923 15.8275 3.30654 15.8255C3.3102 15.8245 3.31673 15.8228 3.32499 15.8208C3.33095 15.8194 3.34904 15.8151 3.37257 15.811L3.62743 17.2892ZM6.73322 15.1227C3.98941 12.3487 3.78417 8.25569 5.90982 5.2867L4.69018 4.4135C2.14783 7.96451 2.39859 12.8735 5.66678 16.1775L6.73322 15.1227ZM4.63942 5.20525C5.81949 7.40017 8.03919 9.47526 10.5229 10.0789L10.8771 8.62131C8.90881 8.14294 6.99451 6.41803 5.96058 4.49494L4.63942 5.20525ZM11.4496 9.37489C11.4872 8.2389 11.888 7.29977 12.5242 6.64966C13.1563 6.00364 14.0621 5.6001 15.2 5.6001V4.1001C13.6869 4.1001 12.3857 4.64655 11.4521 5.60054C10.5225 6.55042 9.99883 7.86129 9.95041 9.3253L11.4496 9.37489ZM15.2 5.6001C16.0057 5.6001 16.5959 5.75301 17.0489 5.99477C17.5003 6.23567 17.8617 6.58945 18.1738 7.06287L19.4262 6.23733C19.0053 5.59874 18.4692 5.05253 17.7551 4.67143C17.0426 4.29119 16.1993 4.1001 15.2 4.1001V5.6001ZM18.8 7.4001H21.5V5.9001H18.8V7.4001ZM20.876 6.23407L19.076 8.93407L20.324 9.76612L22.124 7.06612L20.876 6.23407Z" fill="#fff"/>
</svg>
