<svg width="22" height="22" viewBox="0 0 22 22" fill="none" xmlns="http://www.w3.org/2000/svg">
<path d="M4 4.966H7.15M7.15 4.966H9.25M7.15 4.966V4M11 4.966H9.25M9.25 4.966C8.88 6.286 8.108 7.534 7.225 8.631M7.225 8.631C6.495 9.54 5.688 10.344 4.975 11M7.225 8.631C6.775 8.103 6.145 7.25 5.965 6.864M7.225 8.631L8.575 10.034" stroke="white" stroke-width="1.5" stroke-linecap="round" stroke-linejoin="round"/>
<path d="M6.022 15.978C6.077 17.698 6.264 18.753 6.908 19.538C7.07409 19.7404 7.25965 19.9259 7.462 20.092C8.57 21 10.212 21 13.5 21C16.788 21 18.431 21 19.538 20.092C19.7407 19.9253 19.9253 19.7407 20.092 19.538C21 18.43 21 16.788 21 13.5C21 10.213 21 8.569 20.092 7.462C19.9259 7.25965 19.7404 7.07409 19.538 6.908C18.756 6.267 17.707 6.078 16 6.023M6.022 15.978C4.302 15.923 3.247 15.736 2.462 15.092C2.25965 14.9259 2.07409 14.7404 1.908 14.538C1 13.43 1 11.788 1 8.5C1 5.213 1 3.569 1.908 2.462C2.07409 2.25965 2.25965 2.07409 2.462 1.908C3.57 1 5.212 1 8.5 1C11.787 1 13.431 1 14.538 1.908C14.7404 2.07409 14.9259 2.25965 15.092 2.462C15.736 3.247 15.923 4.302 15.978 6.022L16 6.023M6.022 15.978L16 6.023" stroke="white" stroke-width="1.5" stroke-linecap="round" stroke-linejoin="round"/>
<path d="M12 18L12.833 16M12.833 16L14.5 12L16.167 16M12.833 16H16.167M17 18L16.167 16" stroke="white" stroke-width="1.5" stroke-linecap="round" stroke-linejoin="round"/>
</svg>
