<svg width="24" height="24" viewBox="0 0 24 24" fill="none" xmlns="http://www.w3.org/2000/svg">
<path d="M15.7224 7.27795C15.8204 7.37595 15.8204 7.53395 15.7224 7.63195C15.6244 7.72995 15.4664 7.72995 15.3684 7.63195C15.2704 7.53395 15.2704 7.37595 15.3684 7.27795C15.4664 7.18095 15.6244 7.18095 15.7224 7.27795" stroke="white" stroke-width="1.5" stroke-linecap="round" stroke-linejoin="round"/>
<path fill-rule="evenodd" clip-rule="evenodd" d="M13.5122 3H17.8972C19.0592 3 20.0002 3.941 20.0002 5.102V9.487C20.0002 10.045 19.7782 10.579 19.3842 10.974L10.9742 19.384C10.1532 20.205 8.82224 20.205 8.00124 19.384L3.61624 14.999C2.79524 14.178 2.79524 12.847 3.61624 12.026L12.0262 3.616C12.4202 3.222 12.9552 3 13.5122 3Z" stroke="white" stroke-width="1.5" stroke-linecap="round" stroke-linejoin="round"/>
<path d="M14 21H18C19.105 21 20 20.105 20 19V15" stroke="white" stroke-width="1.5" stroke-linecap="round" stroke-linejoin="round"/>
</svg>
