<svg width="24" height="24" viewBox="0 0 24 24" fill="none" xmlns="http://www.w3.org/2000/svg">
<path fill-rule="evenodd" clip-rule="evenodd" d="M7.40902 14.246L5.87402 7H18.5C19.151 7 19.628 7.611 19.47 8.243L18.122 13.635C17.917 14.454 17.221 15.056 16.381 15.14L9.56502 15.822C8.54902 15.923 7.62002 15.244 7.40902 14.246Z" stroke="white" stroke-width="1.5" stroke-linecap="round" stroke-linejoin="round"/>
<path d="M5.874 7L5.224 4H3.5" stroke="white" stroke-width="1.5" stroke-linecap="round" stroke-linejoin="round"/>
<path d="M17.1093 19.2668C16.9073 19.2668 16.7433 19.4308 16.7453 19.6328C16.7453 19.8348 16.9093 19.9988 17.1113 19.9988C17.3133 19.9988 17.4773 19.8348 17.4773 19.6328C17.4763 19.4308 17.3123 19.2668 17.1093 19.2668" stroke="white" stroke-width="1.5" stroke-linecap="round" stroke-linejoin="round"/>
<path d="M8.69675 19.2668C8.49475 19.2668 8.33075 19.4308 8.33275 19.6328C8.33075 19.8358 8.49575 19.9998 8.69775 19.9998C8.89975 19.9998 9.06375 19.8358 9.06375 19.6338C9.06375 19.4308 8.89975 19.2668 8.69675 19.2668" stroke="white" stroke-width="1.5" stroke-linecap="round" stroke-linejoin="round"/>
</svg>
