<svg width="24" height="24" viewBox="0 0 24 24" fill="none" xmlns="http://www.w3.org/2000/svg">
<g clip-path="url(#clip0_171_98349)">
<path d="M14.0015 8.62354V8.99869C14.0015 10.6562 12.6578 11.9999 11.0003 11.9999V11.9999C9.34273 11.9999 7.99902 10.6562 7.99902 8.99869V8.62354" stroke="#323232" stroke-width="1.5" stroke-linecap="round" stroke-linejoin="round"/>
<path d="M14.0011 8.62393V8.99908C14.0011 10.6566 15.3448 12.0003 17.0023 12.0003H17.2507C18.7711 12.0003 20.0036 10.7678 20.0036 9.24741V9.24741C20.0036 8.83944 19.8927 8.43914 19.6828 8.08931L17.2829 4.08942C16.8761 3.41142 16.1434 2.99658 15.3527 2.99658H6.64696C5.85629 2.99658 5.12359 3.41142 4.7168 4.08942L2.31687 8.0893C2.10697 8.43913 1.99609 8.83943 1.99609 9.2474V9.2474C1.99609 10.7678 3.22862 12.0003 4.74902 12.0003H4.99734C6.65489 12.0003 7.99859 10.6566 7.99859 8.99908V8.62393" stroke="#323232" stroke-width="1.5" stroke-linecap="round" stroke-linejoin="round"/>
<path d="M18.8786 11.4646V18.753C18.8786 19.9962 17.8709 21.004 16.6277 21.004H5.37301C4.12985 21.004 3.12207 19.9962 3.12207 18.753V11.4644" stroke="#323232" stroke-width="1.5" stroke-linecap="round" stroke-linejoin="round"/>
<path d="M12.6879 16.8459H9.31152" stroke="#323232" stroke-width="1.5" stroke-linecap="round" stroke-linejoin="round"/>
</g>
<defs>
<clipPath id="clip0_171_98349">
<rect width="24" height="24" fill="white"/>
</clipPath>
</defs>
</svg>
