<svg width="24" height="25" viewBox="0 0 24 25" fill="none" xmlns="http://www.w3.org/2000/svg">
<path d="M12 22.25C9.239 22.25 7 20.011 7 17.25C7 14.489 9.239 12.25 12 12.25C14.762 12.25 17 14.489 17 17.25C17 20.011 14.762 22.25 12 22.25" stroke="#323232" stroke-width="1.5" stroke-linecap="round" stroke-linejoin="round"/>
<path d="M14.2221 16.1387L11.4441 18.9167L9.77808 17.2497" stroke="#323232" stroke-width="1.5" stroke-linecap="round" stroke-linejoin="round"/>
<path d="M17 17.25H19.5C20.605 17.25 21.5 16.355 21.5 15.25V6.25C21.5 5.145 20.605 4.25 19.5 4.25H4.5C3.395 4.25 2.5 5.145 2.5 6.25V15.25C2.5 16.355 3.395 17.25 4.5 17.25H7" stroke="#323232" stroke-width="1.5" stroke-linecap="round" stroke-linejoin="round"/>
<path d="M2.5 8.09961H21.5" stroke="#323232" stroke-width="1.5" stroke-linecap="round" stroke-linejoin="round"/>
</svg>
