<svg width="24" height="25" viewBox="0 0 24 25" fill="none" xmlns="http://www.w3.org/2000/svg">
<path d="M12 12.175L10.435 13.398C10.3477 13.456 10.2637 13.457 10.183 13.401C10.1023 13.345 10.0787 13.2717 10.112 13.181L10.704 11.196L9.146 10.066C9.06267 10.008 9.041 9.93133 9.081 9.836C9.121 9.74 9.18633 9.692 9.277 9.692H11.215L11.808 7.719C11.8413 7.62833 11.9053 7.583 12 7.583C12.0947 7.583 12.1587 7.62833 12.192 7.719L12.785 9.692H14.717C14.8083 9.692 14.875 9.74 14.917 9.836C14.959 9.932 14.938 10.0087 14.854 10.066L13.29 11.196L13.883 13.181C13.9163 13.2717 13.8927 13.345 13.812 13.401C13.7307 13.457 13.6467 13.456 13.56 13.398L12 12.175ZM12 20.462L8.037 21.646C7.78033 21.7373 7.54333 21.699 7.326 21.531C7.10867 21.363 7 21.1443 7 20.875V15.371C6.36667 14.7483 5.875 14.019 5.525 13.183C5.175 12.347 5 11.4527 5 10.5C5 8.54867 5.679 6.89433 7.037 5.537C8.39433 4.179 10.0487 3.5 12 3.5C13.9513 3.5 15.6057 4.179 16.963 5.537C18.321 6.89433 19 8.54867 19 10.5C19 11.4527 18.825 12.347 18.475 13.183C18.125 14.019 17.6333 14.748 17 15.37V20.874C17 21.1433 16.8913 21.362 16.674 21.53C16.4567 21.698 16.22 21.7363 15.964 21.645L12 20.462ZM12 16.5C13.6667 16.5 15.0833 15.9167 16.25 14.75C17.4167 13.5833 18 12.1667 18 10.5C18 8.83333 17.4167 7.41667 16.25 6.25C15.0833 5.08333 13.6667 4.5 12 4.5C10.3333 4.5 8.91667 5.08333 7.75 6.25C6.58333 7.41667 6 8.83333 6 10.5C6 12.1667 6.58333 13.5833 7.75 14.75C8.91667 15.9167 10.3333 16.5 12 16.5Z" fill="#212121"/>
</svg>
