<svg width="24" height="24" viewBox="0 0 24 24" fill="none" xmlns="http://www.w3.org/2000/svg">
<path fill-rule="evenodd" clip-rule="evenodd" d="M17.4964 5.27286V5.27286C18.9541 6.73063 19.7731 8.70778 19.7731 10.7694C19.7731 12.831 18.9541 14.8081 17.4964 16.2659V16.2659L13.2951 20.4671C12.5797 21.1825 11.4199 21.1825 10.7046 20.4671L6.50329 16.2658C5.04553 14.8081 4.22656 12.8309 4.22656 10.7693C4.22656 8.70774 5.04553 6.73059 6.50329 5.27282V5.27282C7.96106 3.81505 9.93823 2.99609 11.9998 2.99609C14.0614 2.99609 16.0386 3.81508 17.4964 5.27286Z" stroke="#323232" stroke-width="1.5" stroke-linecap="round" stroke-linejoin="round"/>
<path fill-rule="evenodd" clip-rule="evenodd" d="M9.07005 12.3826C8.30649 11.619 8.30649 10.381 9.07005 9.61745L10.6166 8.07088C11.3802 7.30731 12.6182 7.30731 13.3817 8.07087L14.9283 9.61745C15.6919 10.381 15.6919 11.619 14.9283 12.3825L13.3817 13.9291C12.6182 14.6927 11.3802 14.6927 10.6166 13.9291L9.07005 12.3826Z" stroke="#323232" stroke-width="1.5" stroke-linecap="round" stroke-linejoin="round"/>
</svg>
